<?xml version="1.0" encoding="UTF-8"?> <svg xmlns="http://www.w3.org/2000/svg" width="1275" height="866" viewBox="0 0 1275 866" fill="none"> <g opacity="0.1"> <rect x="456.17" y="2" width="17.5325" height="17.5325" stroke="#87CFB6" stroke-width="4"></rect> <rect x="456.17" y="30.4893" width="17.5325" height="17.5325" stroke="#87CFB6" stroke-width="4"></rect> <rect x="513.149" y="2" width="17.5325" height="17.5325" stroke="#87CFB6" stroke-width="4"></rect> <rect x="513.149" y="58.9785" width="17.5325" height="17.5325" stroke="#87CFB6" stroke-width="4"></rect> <rect x="603.917" y="58.9785" width="17.5325" height="17.5325" stroke="#87CFB6" stroke-width="4"></rect> <rect x="597.942" y="171.598" width="21.5325" height="21.5325" fill="#87CFB6"></rect> <rect x="483.322" y="114.288" width="21.5325" height="21.5325" fill="#87CFB6"></rect> <rect x="483.985" y="170.604" width="21.5325" height="21.5325" fill="#87CFB6"></rect> <rect x="313.381" y="227.251" width="21.5325" height="21.5325" fill="#87CFB6"></rect> <rect x="371.685" y="256.071" width="21.5325" height="21.5325" fill="#87CFB6"></rect> <rect x="428" y="284.892" width="21.5325" height="21.5325" fill="#87CFB6"></rect> <rect x="428" y="312.719" width="21.5325" height="21.5325" fill="#87CFB6"></rect> <rect x="284.229" y="312.719" width="21.5325" height="21.5325" fill="#87CFB6"></rect> <rect x="255.74" y="541.626" width="21.5325" height="21.5325" fill="#87CFB6"></rect> <rect x="286.217" y="655.251" width="21.5325" height="21.5325" fill="#87CFB6"></rect> <rect x="171.266" y="711.567" width="21.5325" height="21.5325" fill="#87CFB6"></rect> <rect x="283.567" y="684.403" width="21.5325" height="21.5325" fill="#87CFB6"></rect> <rect x="312.387" y="711.567" width="21.5325" height="21.5325" fill="#87CFB6"></rect> <rect x="340.545" y="712.229" width="21.5325" height="21.5325" fill="#87CFB6"></rect> <rect x="255.74" y="711.567" width="21.5325" height="21.5325" fill="#87CFB6"></rect> <rect x="169.941" y="739.725" width="21.5325" height="21.5325" fill="#87CFB6"></rect> <rect x="399.18" y="369.034" width="21.5325" height="21.5325" fill="#87CFB6"></rect> <rect x="454.17" y="709.248" width="21.5325" height="21.5325" fill="#87CFB6"></rect> <rect x="511.48" y="740.387" width="21.5325" height="21.5325" fill="#87CFB6"></rect> <rect x="371.022" y="482.329" width="21.5325" height="21.5325" fill="#87CFB6"></rect> <rect x="371.685" y="511.149" width="21.5325" height="21.5325" fill="#87CFB6"></rect> <rect x="284.229" y="455.164" width="21.5325" height="21.5325" fill="#87CFB6"></rect> <rect x="283.235" y="427.007" width="21.5325" height="21.5325" fill="#87CFB6"></rect> <rect x="201.743" y="482.329" width="21.5325" height="21.5325" fill="#87CFB6"></rect> <rect x="398.849" y="227.251" width="21.5325" height="21.5325" fill="#87CFB6"></rect> <rect x="257.065" y="198.762" width="21.5325" height="21.5325" fill="#87CFB6"></rect> <rect x="483.322" y="199.424" width="21.5325" height="21.5325" fill="#87CFB6"></rect> <rect x="511.149" y="114.288" width="21.5325" height="21.5325" fill="#87CFB6"></rect> <rect x="483.985" y="142.446" width="21.5325" height="21.5325" fill="#87CFB6"></rect> <rect x="511.149" y="170.604" width="21.5325" height="21.5325" fill="#87CFB6"></rect> <rect x="340.545" y="227.251" width="21.5325" height="21.5325" fill="#87CFB6"></rect> <rect x="398.849" y="256.071" width="21.5325" height="21.5325" fill="#87CFB6"></rect> <rect x="455.164" y="284.892" width="21.5325" height="21.5325" fill="#87CFB6"></rect> <rect x="455.164" y="312.719" width="21.5325" height="21.5325" fill="#87CFB6"></rect> <rect x="311.394" y="312.719" width="21.5325" height="21.5325" fill="#87CFB6"></rect> <rect x="282.904" y="541.626" width="21.5325" height="21.5325" fill="#87CFB6"></rect> <rect x="313.381" y="655.251" width="21.5325" height="21.5325" fill="#87CFB6"></rect> <rect x="198.431" y="711.567" width="21.5325" height="21.5325" fill="#87CFB6"></rect> <rect x="199.424" y="683.409" width="21.5325" height="21.5325" fill="#87CFB6"></rect> <rect x="426.344" y="369.034" width="21.5325" height="21.5325" fill="#87CFB6"></rect> <rect x="398.186" y="482.329" width="21.5325" height="21.5325" fill="#87CFB6"></rect> <rect x="398.849" y="511.149" width="21.5325" height="21.5325" fill="#87CFB6"></rect> <rect x="456.158" y="484.316" width="21.5325" height="21.5325" fill="#87CFB6"></rect> <rect x="398.186" y="454.171" width="21.5325" height="21.5325" fill="#87CFB6"></rect> <rect x="311.394" y="340.545" width="21.5325" height="21.5325" fill="#87CFB6"></rect> <rect x="370.028" y="396.861" width="21.5325" height="21.5325" fill="#87CFB6"></rect> <rect x="338.558" y="312.719" width="21.5325" height="21.5325" fill="#87CFB6"></rect> <rect x="310.068" y="541.626" width="21.5325" height="21.5325" fill="#87CFB6"></rect> <rect x="340.545" y="655.251" width="21.5325" height="21.5325" fill="#87CFB6"></rect> <rect x="225.595" y="711.567" width="21.5325" height="21.5325" fill="#87CFB6"></rect> <rect x="226.588" y="683.409" width="21.5325" height="21.5325" fill="#87CFB6"></rect> <rect x="313.381" y="569.452" width="21.5325" height="21.5325" fill="#87CFB6"></rect> <rect x="312.387" y="597.61" width="21.5325" height="21.5325" fill="#87CFB6"></rect> <rect x="338.558" y="597.61" width="21.5325" height="21.5325" fill="#87CFB6"></rect> <rect x="282.573" y="597.279" width="21.5325" height="21.5325" fill="#87CFB6"></rect> <rect x="453.508" y="369.034" width="21.5325" height="21.5325" fill="#87CFB6"></rect> <rect x="425.35" y="482.329" width="21.5325" height="21.5325" fill="#87CFB6"></rect> <rect x="426.013" y="511.149" width="21.5325" height="21.5325" fill="#87CFB6"></rect> <rect x="483.322" y="484.316" width="21.5325" height="21.5325" fill="#87CFB6"></rect> <rect x="482.329" y="510.155" width="21.5325" height="21.5325" fill="#87CFB6"></rect> <rect x="487.96" y="535.994" width="21.5325" height="21.5325" fill="#87CFB6"></rect> <rect x="481.997" y="567.465" width="21.5325" height="21.5325" fill="#87CFB6"></rect> <rect x="481.997" y="597.61" width="21.5325" height="21.5325" fill="#87CFB6"></rect> <rect x="453.508" y="569.121" width="21.5325" height="21.5325" fill="#87CFB6"></rect> <rect x="511.149" y="541.626" width="21.5325" height="21.5325" fill="#87CFB6"></rect> <rect x="515.787" y="567.465" width="21.5325" height="21.5325" fill="#87CFB6"></rect> <rect x="539.638" y="569.452" width="21.5325" height="21.5325" fill="#87CFB6"></rect> <rect x="539.638" y="512.474" width="21.5325" height="21.5325" fill="#87CFB6"></rect> <rect x="541.957" y="482.329" width="21.5325" height="21.5325" fill="#87CFB6"></rect> <rect x="569.784" y="455.164" width="21.5325" height="21.5325" fill="#87CFB6"></rect> <rect x="539.638" y="625.106" width="21.5325" height="21.5325" fill="#87CFB6"></rect> <rect x="596.285" y="625.768" width="21.5325" height="21.5325" fill="#87CFB6"></rect> <rect x="624.112" y="512.474" width="21.5325" height="21.5325" fill="#87CFB6"></rect> <rect x="767.883" y="711.236" width="21.5325" height="21.5325" fill="#87CFB6"></rect> <rect x="854.344" y="713.886" width="21.5325" height="21.5325" fill="#87CFB6"></rect> <rect x="740.387" y="427.007" width="21.5325" height="21.5325" fill="#87CFB6"></rect> <rect x="938.818" y="427.669" width="21.5325" height="21.5325" fill="#87CFB6"></rect> <rect x="795.378" y="228.245" width="21.5325" height="21.5325" fill="#87CFB6"></rect> <rect x="740.387" y="397.855" width="21.5325" height="21.5325" fill="#87CFB6"></rect> <rect x="851.694" y="625.106" width="21.5325" height="21.5325" fill="#87CFB6"></rect> <rect x="740.387" y="657.239" width="21.5325" height="21.5325" fill="#87CFB6"></rect> <rect x="908.672" y="227.251" width="21.5325" height="21.5325" fill="#87CFB6"></rect> <rect x="879.521" y="228.245" width="21.5325" height="21.5325" fill="#87CFB6"></rect> <rect x="992.815" y="227.251" width="21.5325" height="21.5325" fill="#87CFB6"></rect> <rect x="1021.97" y="228.245" width="21.5325" height="21.5325" fill="#87CFB6"></rect> <rect x="1052.44" y="163.979" width="21.5325" height="21.5325" fill="#87CFB6"></rect> <rect x="1134.6" y="50.0215" width="21.5325" height="21.5325" fill="#87CFB6"></rect> <rect x="965.651" y="142.446" width="21.5325" height="21.5325" fill="#87CFB6"></rect> <rect x="852.357" y="227.251" width="21.5325" height="21.5325" fill="#87CFB6"></rect> <rect x="797.366" y="396.861" width="21.5325" height="21.5325" fill="#87CFB6"></rect> <rect x="908.672" y="624.112" width="21.5325" height="21.5325" fill="#87CFB6"></rect> <rect x="1024.95" y="625.768" width="21.5325" height="21.5325" fill="#87CFB6"></rect> <rect x="852.357" y="569.452" width="21.5325" height="21.5325" fill="#87CFB6"></rect> <rect x="795.709" y="484.316" width="21.5325" height="21.5325" fill="#87CFB6"></rect> <rect x="825.855" y="455.496" width="21.5325" height="21.5325" fill="#87CFB6"></rect> <rect x="825.192" y="368.703" width="21.5325" height="21.5325" fill="#87CFB6"></rect> <rect x="654.257" y="453.177" width="21.5325" height="21.5325" fill="#87CFB6"></rect> <rect x="994.471" y="368.703" width="21.5325" height="21.5325" fill="#87CFB6"></rect> <rect x="994.471" y="456.158" width="21.5325" height="21.5325" fill="#87CFB6"></rect> <rect x="882.171" y="683.74" width="21.5325" height="21.5325" fill="#87CFB6"></rect> <rect x="681.753" y="597.942" width="21.5325" height="21.5325" fill="#87CFB6"></rect> <rect x="709.911" y="569.452" width="21.5325" height="21.5325" fill="#87CFB6"></rect> <rect x="739.394" y="540.632" width="21.5325" height="21.5325" fill="#87CFB6"></rect> <rect x="765.895" y="512.474" width="21.5325" height="21.5325" fill="#87CFB6"></rect> <rect x="824.53" y="512.474" width="21.5325" height="21.5325" fill="#87CFB6"></rect> <rect x="851.694" y="542.288" width="21.5325" height="21.5325" fill="#87CFB6"></rect> <rect x="795.047" y="540.632" width="21.5325" height="21.5325" fill="#87CFB6"></rect> <rect x="765.895" y="597.942" width="21.5325" height="21.5325" fill="#87CFB6"></rect> <rect x="795.378" y="625.768" width="21.5325" height="21.5325" fill="#87CFB6"></rect> <rect x="739.062" y="682.084" width="21.5325" height="21.5325" fill="#87CFB6"></rect> <rect x="795.378" y="711.236" width="21.5325" height="21.5325" fill="#87CFB6"></rect> <rect x="822.542" y="740.056" width="21.5325" height="21.5325" fill="#87CFB6"></rect> <rect x="795.378" y="795.378" width="21.5325" height="21.5325" fill="#87CFB6"></rect> <rect x="880.846" y="767.883" width="21.5325" height="21.5325" fill="#87CFB6"></rect> <rect x="966.645" y="770.533" width="21.5325" height="21.5325" fill="#87CFB6"></rect> <rect x="965.982" y="739.725" width="21.5325" height="21.5325" fill="#87CFB6"></rect> <rect x="937.162" y="682.084" width="21.5325" height="21.5325" fill="#87CFB6"></rect> <rect x="995.796" y="683.409" width="21.5325" height="21.5325" fill="#87CFB6"></rect> <rect x="1252.53" y="684.072" width="21.5325" height="21.5325" fill="#87CFB6"></rect> <rect x="992.815" y="539.969" width="21.5325" height="21.5325" fill="#87CFB6"></rect> <rect x="993.146" y="482.329" width="21.5325" height="21.5325" fill="#87CFB6"></rect> <rect x="937.824" y="570.446" width="21.5325" height="21.5325" fill="#87CFB6"></rect> <rect x="851.363" y="483.985" width="21.5325" height="21.5325" fill="#87CFB6"></rect> <rect x="882.171" y="453.177" width="21.5325" height="21.5325" fill="#87CFB6"></rect> <rect x="851.694" y="427.007" width="21.5325" height="21.5325" fill="#87CFB6"></rect> <rect x="909.335" y="427.669" width="21.5325" height="21.5325" fill="#87CFB6"></rect> <rect x="965.651" y="399.511" width="21.5325" height="21.5325" fill="#87CFB6"></rect> <rect x="880.846" y="399.511" width="21.5325" height="21.5325" fill="#87CFB6"></rect> <rect x="879.852" y="368.703" width="21.5325" height="21.5325" fill="#87CFB6"></rect> <rect x="683.74" y="455.496" width="21.5325" height="21.5325" fill="#87CFB6"></rect> <rect x="797.366" y="656.245" width="21.5325" height="21.5325" fill="#87CFB6"></rect> <rect x="965.651" y="226.257" width="21.5325" height="21.5325" fill="#87CFB6"></rect> <rect x="824.53" y="228.245" width="21.5325" height="21.5325" fill="#87CFB6"></rect> <rect x="769.539" y="397.855" width="21.5325" height="21.5325" fill="#87CFB6"></rect> <rect x="880.846" y="625.106" width="21.5325" height="21.5325" fill="#87CFB6"></rect> <rect x="997.121" y="626.762" width="21.5325" height="21.5325" fill="#87CFB6"></rect> <rect x="824.53" y="570.446" width="21.5325" height="21.5325" fill="#87CFB6"></rect> <rect x="767.883" y="485.31" width="21.5325" height="21.5325" fill="#87CFB6"></rect> <rect x="798.028" y="456.49" width="21.5325" height="21.5325" fill="#87CFB6"></rect> <rect x="797.366" y="369.697" width="21.5325" height="21.5325" fill="#87CFB6"></rect> <rect x="626.431" y="454.171" width="21.5325" height="21.5325" fill="#87CFB6"></rect> <rect x="966.645" y="369.697" width="21.5325" height="21.5325" fill="#87CFB6"></rect> <rect x="966.645" y="457.152" width="21.5325" height="21.5325" fill="#87CFB6"></rect> <rect x="854.344" y="684.734" width="21.5325" height="21.5325" fill="#87CFB6"></rect> <rect x="653.926" y="598.936" width="21.5325" height="21.5325" fill="#87CFB6"></rect> <rect x="682.084" y="570.446" width="21.5325" height="21.5325" fill="#87CFB6"></rect> <rect x="711.567" y="541.626" width="21.5325" height="21.5325" fill="#87CFB6"></rect> <rect x="769.539" y="657.239" width="21.5325" height="21.5325" fill="#87CFB6"></rect> <rect x="937.824" y="227.251" width="21.5325" height="21.5325" fill="#87CFB6"></rect> <rect x="938.818" y="256.071" width="21.5325" height="21.5325" fill="#87CFB6"></rect> <rect x="938.818" y="312.387" width="21.5325" height="21.5325" fill="#87CFB6"></rect> <rect x="908.672" y="284.892" width="21.5325" height="21.5325" fill="#87CFB6"></rect> <rect x="822.542" y="255.409" width="21.5325" height="21.5325" fill="#87CFB6"></rect> <rect x="824.53" y="312.719" width="21.5325" height="21.5325" fill="#87CFB6"></rect> <rect x="624.112" y="539.638" width="21.5325" height="21.5325" fill="#87CFB6"></rect> <rect x="767.883" y="738.4" width="21.5325" height="21.5325" fill="#87CFB6"></rect> <rect x="854.344" y="741.05" width="21.5325" height="21.5325" fill="#87CFB6"></rect> <rect x="740.387" y="454.171" width="21.5325" height="21.5325" fill="#87CFB6"></rect> <rect x="938.818" y="454.833" width="21.5325" height="21.5325" fill="#87CFB6"></rect> <rect x="795.378" y="255.409" width="21.5325" height="21.5325" fill="#87CFB6"></rect> <rect x="879.521" y="255.409" width="21.5325" height="21.5325" fill="#87CFB6"></rect> <rect x="596.285" y="655.251" width="21.5325" height="21.5325" fill="#87CFB6"></rect> <rect x="653.926" y="541.626" width="21.5325" height="21.5325" fill="#87CFB6"></rect> <rect x="624.112" y="569.121" width="21.5325" height="21.5325" fill="#87CFB6"></rect> <rect x="767.883" y="767.883" width="21.5325" height="21.5325" fill="#87CFB6"></rect> <rect x="854.344" y="770.533" width="21.5325" height="21.5325" fill="#87CFB6"></rect> <rect x="740.387" y="483.654" width="21.5325" height="21.5325" fill="#87CFB6"></rect> <rect x="938.818" y="484.316" width="21.5325" height="21.5325" fill="#87CFB6"></rect> <rect x="795.378" y="284.892" width="21.5325" height="21.5325" fill="#87CFB6"></rect> <rect x="879.521" y="284.892" width="21.5325" height="21.5325" fill="#87CFB6"></rect> <rect x="596.285" y="713.223" width="21.5325" height="21.5325" fill="#87CFB6"></rect> <rect x="624.443" y="683.409" width="21.5325" height="21.5325" fill="#87CFB6"></rect> <rect x="624.774" y="652.932" width="21.5325" height="21.5325" fill="#87CFB6"></rect> <rect x="544.938" y="652.932" width="21.5325" height="21.5325" fill="#87CFB6"></rect> <rect x="539.638" y="682.084" width="21.5325" height="21.5325" fill="#87CFB6"></rect> <rect x="540.632" y="739.725" width="21.5325" height="21.5325" fill="#87CFB6"></rect> <rect x="483.322" y="740.387" width="21.5325" height="21.5325" fill="#87CFB6"></rect> <rect x="483.322" y="770.533" width="21.5325" height="21.5325" fill="#87CFB6"></rect> <rect x="483.322" y="683.409" width="21.5325" height="21.5325" fill="#87CFB6"></rect> <rect x="568.127" y="768.214" width="21.5325" height="21.5325" fill="#87CFB6"></rect> <rect x="568.127" y="797.697" width="21.5325" height="21.5325" fill="#87CFB6"></rect> <rect x="509.493" y="797.697" width="21.5325" height="21.5325" fill="#87CFB6"></rect> <rect x="425.35" y="454.171" width="21.5325" height="21.5325" fill="#87CFB6"></rect> <rect x="454.833" y="341.87" width="21.5325" height="21.5325" fill="#87CFB6"></rect> <rect x="340.545" y="369.034" width="21.5325" height="21.5325" fill="#87CFB6"></rect> <rect x="312.387" y="482.329" width="21.5325" height="21.5325" fill="#87CFB6"></rect> <rect x="255.078" y="484.316" width="21.5325" height="21.5325" fill="#87CFB6"></rect> <rect x="284.229" y="512.474" width="21.5325" height="21.5325" fill="#87CFB6"></rect> <rect x="226.919" y="511.48" width="21.5325" height="21.5325" fill="#87CFB6"></rect> <rect x="140.79" y="512.474" width="21.5325" height="21.5325" fill="#87CFB6"></rect> <rect x="113.625" y="512.474" width="21.5325" height="21.5325" fill="#87CFB6"></rect> <rect x="54.6592" y="512.474" width="21.5325" height="21.5325" fill="#87CFB6"></rect> <rect y="512.474" width="21.5325" height="21.5325" fill="#87CFB6"></rect> <rect x="26.5015" y="540.632" width="21.5325" height="21.5325" fill="#87CFB6"></rect> <rect x="84.8052" y="569.121" width="21.5325" height="21.5325" fill="#87CFB6"></rect> <rect x="84.8052" y="597.61" width="21.5325" height="21.5325" fill="#87CFB6"></rect> <rect y="597.61" width="21.5325" height="21.5325" fill="#87CFB6"></rect> <rect x="317.025" y="510.155" width="21.5325" height="21.5325" fill="#87CFB6"></rect> <rect x="225.595" y="455.164" width="21.5325" height="21.5325" fill="#87CFB6"></rect> <rect x="398.849" y="341.87" width="21.5325" height="21.5325" fill="#87CFB6"></rect> <rect x="453.839" y="682.084" width="21.5325" height="21.5325" fill="#87CFB6"></rect> <rect x="511.149" y="713.223" width="21.5325" height="21.5325" fill="#87CFB6"></rect> <rect x="201.412" y="455.164" width="21.5325" height="21.5325" fill="#87CFB6"></rect> <rect x="338.558" y="340.545" width="21.5325" height="21.5325" fill="#87CFB6"></rect> <rect x="397.192" y="396.861" width="21.5325" height="21.5325" fill="#87CFB6"></rect> <rect x="452.183" y="737.075" width="21.5325" height="21.5325" fill="#87CFB6"></rect> <rect x="509.493" y="768.214" width="21.5325" height="21.5325" fill="#87CFB6"></rect> <rect x="199.755" y="510.155" width="21.5325" height="21.5325" fill="#87CFB6"></rect> <rect x="426.013" y="227.251" width="21.5325" height="21.5325" fill="#87CFB6"></rect> <rect x="284.229" y="198.762" width="21.5325" height="21.5325" fill="#87CFB6"></rect> <rect x="511.149" y="85.4678" width="21.5325" height="21.5325" fill="#87CFB6"></rect> <rect x="627.093" y="199.755" width="21.5325" height="21.5325" fill="#87CFB6"></rect> <rect x="568.79" y="171.598" width="21.5325" height="21.5325" fill="#87CFB6"></rect> <rect x="454.17" y="114.288" width="21.5325" height="21.5325" fill="#87CFB6"></rect> <rect x="454.833" y="170.604" width="21.5325" height="21.5325" fill="#87CFB6"></rect> <rect x="284.229" y="227.251" width="21.5325" height="21.5325" fill="#87CFB6"></rect> <rect x="342.533" y="256.071" width="21.5325" height="21.5325" fill="#87CFB6"></rect> <rect x="398.849" y="284.892" width="21.5325" height="21.5325" fill="#87CFB6"></rect> <rect x="453.839" y="625.106" width="21.5325" height="21.5325" fill="#87CFB6"></rect> <rect x="511.149" y="656.245" width="21.5325" height="21.5325" fill="#87CFB6"></rect> <rect x="201.412" y="398.186" width="21.5325" height="21.5325" fill="#87CFB6"></rect> <rect x="398.849" y="312.719" width="21.5325" height="21.5325" fill="#87CFB6"></rect> <rect x="453.839" y="652.932" width="21.5325" height="21.5325" fill="#87CFB6"></rect> <rect x="511.149" y="684.072" width="21.5325" height="21.5325" fill="#87CFB6"></rect> <rect x="201.412" y="426.013" width="21.5325" height="21.5325" fill="#87CFB6"></rect> <rect x="255.078" y="312.719" width="21.5325" height="21.5325" fill="#87CFB6"></rect> <rect x="226.588" y="541.626" width="21.5325" height="21.5325" fill="#87CFB6"></rect> <rect x="257.065" y="655.251" width="21.5325" height="21.5325" fill="#87CFB6"></rect> <rect x="142.115" y="711.567" width="21.5325" height="21.5325" fill="#87CFB6"></rect> <rect x="143.108" y="683.409" width="21.5325" height="21.5325" fill="#87CFB6"></rect> <rect x="169.941" y="427.007" width="21.5325" height="21.5325" fill="#87CFB6"></rect> <rect x="174.91" y="396.861" width="21.5325" height="21.5325" fill="#87CFB6"></rect> <rect x="140.79" y="396.861" width="21.5325" height="21.5325" fill="#87CFB6"></rect> <rect x="140.79" y="370.028" width="21.5325" height="21.5325" fill="#87CFB6"></rect> <rect x="140.79" y="454.171" width="21.5325" height="21.5325" fill="#87CFB6"></rect> <rect x="370.028" y="369.034" width="21.5325" height="21.5325" fill="#87CFB6"></rect> <rect x="341.87" y="482.329" width="21.5325" height="21.5325" fill="#87CFB6"></rect> <rect x="340.545" y="511.149" width="21.5325" height="21.5325" fill="#87CFB6"></rect> <rect x="255.078" y="455.164" width="21.5325" height="21.5325" fill="#87CFB6"></rect> <rect x="454.17" y="199.424" width="21.5325" height="21.5325" fill="#87CFB6"></rect> <rect x="454.17" y="85.4678" width="21.5325" height="21.5325" fill="#87CFB6"></rect> <rect x="597.942" y="199.755" width="21.5325" height="21.5325" fill="#87CFB6"></rect> <rect x="484.991" y="286.561" width="17.5325" height="17.5325" stroke="#87CFB6" stroke-width="4"></rect> <rect x="369.709" y="314.719" width="17.5325" height="17.5325" stroke="#87CFB6" stroke-width="4"></rect> <rect x="484.991" y="456.171" width="17.5325" height="17.5325" stroke="#87CFB6" stroke-width="4"></rect> <rect x="428.344" y="542.632" width="17.5325" height="17.5325" stroke="#87CFB6" stroke-width="4"></rect> <rect x="342.545" y="541.969" width="17.5325" height="17.5325" stroke="#87CFB6" stroke-width="4"></rect> <rect x="171.941" y="541.969" width="17.5325" height="17.5325" stroke="#87CFB6" stroke-width="4"></rect> <rect x="171.941" y="513.48" width="17.5325" height="17.5325" stroke="#87CFB6" stroke-width="4"></rect> <rect x="313.394" y="456.171" width="17.5325" height="17.5325" stroke="#87CFB6" stroke-width="4"></rect> <rect x="228.588" y="429.007" width="17.5325" height="17.5325" stroke="#87CFB6" stroke-width="4"></rect> <rect x="428.013" y="571.121" width="17.5325" height="17.5325" stroke="#87CFB6" stroke-width="4"></rect> <rect x="484.991" y="627.106" width="17.5325" height="17.5325" stroke="#87CFB6" stroke-width="4"></rect> <rect x="542.963" y="799.697" width="17.5325" height="17.5325" stroke="#87CFB6" stroke-width="4"></rect> <rect x="417.743" y="846.406" width="17.5325" height="17.5325" stroke="#87CFB6" stroke-width="4"></rect> <rect x="398.861" y="657.251" width="17.5325" height="17.5325" stroke="#87CFB6" stroke-width="4"></rect> <rect x="342.545" y="627.768" width="17.5325" height="17.5325" stroke="#87CFB6" stroke-width="4"></rect> <rect x="257.74" y="599.61" width="17.5325" height="17.5325" stroke="#87CFB6" stroke-width="4"></rect> <rect x="257.74" y="571.121" width="17.5325" height="17.5325" stroke="#87CFB6" stroke-width="4"></rect> <rect x="171.941" y="571.121" width="17.5325" height="17.5325" stroke="#87CFB6" stroke-width="4"></rect> <rect x="398.861" y="713.567" width="17.5325" height="17.5325" stroke="#87CFB6" stroke-width="4"></rect> <rect x="398.861" y="769.883" width="17.5325" height="17.5325" stroke="#87CFB6" stroke-width="4"></rect> <rect x="257.74" y="741.725" width="17.5325" height="17.5325" stroke="#87CFB6" stroke-width="4"></rect> <rect x="314.387" y="799.697" width="17.5325" height="17.5325" stroke="#87CFB6" stroke-width="4"></rect> <rect x="484.991" y="343.87" width="17.5325" height="17.5325" stroke="#87CFB6" stroke-width="4"></rect> <rect x="655.264" y="486.316" width="17.5325" height="17.5325" stroke="#87CFB6" stroke-width="4"></rect> <rect x="342.545" y="429.007" width="17.5325" height="17.5325" stroke="#87CFB6" stroke-width="4"></rect> <rect x="484.991" y="371.034" width="17.5325" height="17.5325" stroke="#87CFB6" stroke-width="4"></rect> <rect x="655.264" y="513.48" width="17.5325" height="17.5325" stroke="#87CFB6" stroke-width="4"></rect> <rect x="342.545" y="456.171" width="17.5325" height="17.5325" stroke="#87CFB6" stroke-width="4"></rect> <rect x="512.155" y="343.87" width="17.5325" height="17.5325" stroke="#87CFB6" stroke-width="4"></rect> <rect x="682.428" y="486.316" width="17.5325" height="17.5325" stroke="#87CFB6" stroke-width="4"></rect> <rect x="369.709" y="429.007" width="17.5325" height="17.5325" stroke="#87CFB6" stroke-width="4"></rect> <rect x="512.155" y="314.719" width="17.5325" height="17.5325" stroke="#87CFB6" stroke-width="4"></rect> <rect x="512.155" y="371.034" width="17.5325" height="17.5325" stroke="#87CFB6" stroke-width="4"></rect> <rect x="655.264" y="627.106" width="17.5325" height="17.5325" stroke="#87CFB6" stroke-width="4"></rect> <rect x="682.428" y="627.106" width="17.5325" height="17.5325" stroke="#87CFB6" stroke-width="4"></rect> <rect x="711.58" y="627.106" width="17.5325" height="17.5325" stroke="#87CFB6" stroke-width="4"></rect> <rect x="428.344" y="657.251" width="17.5325" height="17.5325" stroke="#87CFB6" stroke-width="4"></rect> <rect x="372.028" y="627.768" width="17.5325" height="17.5325" stroke="#87CFB6" stroke-width="4"></rect> <rect x="369.709" y="657.251" width="17.5325" height="17.5325" stroke="#87CFB6" stroke-width="4"></rect> <rect x="313.394" y="627.768" width="17.5325" height="17.5325" stroke="#87CFB6" stroke-width="4"></rect> <rect x="228.588" y="599.61" width="17.5325" height="17.5325" stroke="#87CFB6" stroke-width="4"></rect> <rect x="228.588" y="627.106" width="17.5325" height="17.5325" stroke="#87CFB6" stroke-width="4"></rect> <rect x="142.79" y="571.121" width="17.5325" height="17.5325" stroke="#87CFB6" stroke-width="4"></rect> <rect x="711.58" y="657.251" width="17.5325" height="17.5325" stroke="#87CFB6" stroke-width="4"></rect> <rect x="428.344" y="687.397" width="17.5325" height="17.5325" stroke="#87CFB6" stroke-width="4"></rect> <rect x="655.264" y="657.251" width="17.5325" height="17.5325" stroke="#87CFB6" stroke-width="4"></rect> <rect x="369.709" y="687.397" width="17.5325" height="17.5325" stroke="#87CFB6" stroke-width="4"></rect> <rect x="711.58" y="687.397" width="17.5325" height="17.5325" stroke="#87CFB6" stroke-width="4"></rect> <rect x="428.344" y="713.567" width="17.5325" height="17.5325" stroke="#87CFB6" stroke-width="4"></rect> <rect x="428.344" y="769.883" width="17.5325" height="17.5325" stroke="#87CFB6" stroke-width="4"></rect> <rect x="655.264" y="687.397" width="17.5325" height="17.5325" stroke="#87CFB6" stroke-width="4"></rect> <rect x="655.264" y="741.725" width="17.5325" height="17.5325" stroke="#87CFB6" stroke-width="4"></rect> <rect x="1168.07" y="627.106" width="17.5325" height="17.5325" stroke="#87CFB6" stroke-width="4"></rect> <rect x="1053.45" y="571.121" width="17.5325" height="17.5325" stroke="#87CFB6" stroke-width="4"></rect> <rect x="967.982" y="542.632" width="17.5325" height="17.5325" stroke="#87CFB6" stroke-width="4"></rect> <rect x="939.162" y="542.632" width="17.5325" height="17.5325" stroke="#87CFB6" stroke-width="4"></rect> <rect x="911.335" y="571.121" width="17.5325" height="17.5325" stroke="#87CFB6" stroke-width="4"></rect> <rect x="711.58" y="486.316" width="17.5325" height="17.5325" stroke="#87CFB6" stroke-width="4"></rect> <rect x="682.428" y="513.48" width="17.5325" height="17.5325" stroke="#87CFB6" stroke-width="4"></rect> <rect x="911.335" y="372.028" width="17.5325" height="17.5325" stroke="#87CFB6" stroke-width="4"></rect> <rect x="939.162" y="372.028" width="17.5325" height="17.5325" stroke="#87CFB6" stroke-width="4"></rect> <rect x="968.645" y="258.071" width="17.5325" height="17.5325" stroke="#87CFB6" stroke-width="4"></rect> <rect x="939.162" y="201.755" width="17.5325" height="17.5325" stroke="#87CFB6" stroke-width="4"></rect> <rect x="911.335" y="173.598" width="17.5325" height="17.5325" stroke="#87CFB6" stroke-width="4"></rect> <rect x="854.357" y="173.598" width="17.5325" height="17.5325" stroke="#87CFB6" stroke-width="4"></rect> <rect x="854.357" y="201.755" width="17.5325" height="17.5325" stroke="#87CFB6" stroke-width="4"></rect> <rect x="797.378" y="173.598" width="17.5325" height="17.5325" stroke="#87CFB6" stroke-width="4"></rect> <rect x="825.867" y="627.106" width="17.5325" height="17.5325" stroke="#87CFB6" stroke-width="4"></rect> <rect x="911.335" y="713.567" width="17.5325" height="17.5325" stroke="#87CFB6" stroke-width="4"></rect> <rect x="655.264" y="799.697" width="17.5325" height="17.5325" stroke="#87CFB6" stroke-width="4"></rect> <rect x="369.709" y="713.567" width="17.5325" height="17.5325" stroke="#87CFB6" stroke-width="4"></rect> <rect x="369.709" y="769.883" width="17.5325" height="17.5325" stroke="#87CFB6" stroke-width="4"></rect> <rect x="228.588" y="741.725" width="17.5325" height="17.5325" stroke="#87CFB6" stroke-width="4"></rect> <rect x="369.709" y="799.697" width="17.5325" height="17.5325" stroke="#87CFB6" stroke-width="4"></rect> <rect x="285.235" y="769.883" width="17.5325" height="17.5325" stroke="#87CFB6" stroke-width="4"></rect> <rect x="314.387" y="741.725" width="17.5325" height="17.5325" stroke="#87CFB6" stroke-width="4"></rect> <rect x="285.235" y="799.697" width="17.5325" height="17.5325" stroke="#87CFB6" stroke-width="4"></rect> <rect x="369.709" y="456.171" width="17.5325" height="17.5325" stroke="#87CFB6" stroke-width="4"></rect> </g> </svg> 